<svg width="20" height="20" viewBox="0 0 20 20" fill="none" xmlns="http://www.w3.org/2000/svg">
<g clip-path="url(#clip0)">
<path d="M0 3.53761L1.34423e-07 0.462376C1.45585e-07 0.20701 0.244343 -1.3175e-08 0.545752 0L19.4543 8.26517e-07C19.7557 8.39692e-07 20 0.207011 20 0.462377V3.53761C20 3.79298 19.7557 4 19.4543 4H0.545751C0.244343 4 -1.1162e-08 3.79298 0 3.53761Z" fill="white"/>
<path d="M0 11.5376L1.34423e-07 8.46237C1.45585e-07 8.20701 0.244343 8 0.545752 8H19.4543C19.7557 8 20 8.20701 20 8.46238V11.5376C20 11.793 19.7557 12 19.4543 12H0.545751C0.244343 12 -1.1162e-08 11.793 0 11.5376Z" fill="white"/>
<path d="M0 19.5376L1.34423e-07 16.4624C1.45585e-07 16.207 0.244343 16 0.545752 16H19.4543C19.7557 16 20 16.207 20 16.4624V19.5376C20 19.793 19.7557 20 19.4543 20H0.545751C0.244343 20 -1.1162e-08 19.793 0 19.5376Z" fill="white"/>
</g>
<defs>
<clipPath id="clip0">
<rect width="20" height="20" fill="white"/>
</clipPath>
</defs>
</svg>
