<svg width="20" height="20" viewBox="0 0 20 20" fill="none" xmlns="http://www.w3.org/2000/svg">
<path d="M-1.54634e-07 3.53761L-2.02111e-08 0.462375C-9.04869e-09 0.207009 0.244343 -8.63547e-07 0.545752 -8.50372e-07L19.4543 -2.38554e-08C19.7557 -1.06804e-08 20 0.20701 20 0.462376L20 3.53761C20 3.79298 19.7557 4 19.4543 4L0.545751 4C0.244343 4 -1.65796e-07 3.79298 -1.54634e-07 3.53761Z" fill="#ffffff"/>
<path d="M-1.54634e-07 11.5376L-2.02111e-08 8.46237C-9.04869e-09 8.20701 0.244343 8 0.545752 8L19.4543 8C19.7557 8 20 8.20701 20 8.46238L20 11.5376C20 11.793 19.7557 12 19.4543 12L0.545751 12C0.244343 12 -1.65796e-07 11.793 -1.54634e-07 11.5376Z" fill="#ffffff"/>
<path d="M-1.54634e-07 19.5376L-2.02111e-08 16.4624C-9.04869e-09 16.207 0.244343 16 0.545752 16L19.4543 16C19.7557 16 20 16.207 20 16.4624L20 19.5376C20 19.793 19.7557 20 19.4543 20L0.545751 20C0.244343 20 -1.65796e-07 19.793 -1.54634e-07 19.5376Z" fill="#ffffff"/>
</svg>
